<?xml version="1.0" standalone="no"?>
<!DOCTYPE svg PUBLIC "-//W3C//DTD SVG 20010904//EN"
 "http://www.w3.org/TR/2001/REC-SVG-20010904/DTD/svg10.dtd">
<svg version="1.0" xmlns="http://www.w3.org/2000/svg"
 width="16.000000pt" height="16.000000pt" viewBox="0 0 16.000000 16.000000"
 preserveAspectRatio="xMidYMid meet">
<metadata>
Created by potrace 1.11, written by Peter Selinger 2001-2013
</metadata>
<g transform="translate(0.000000,16.000000) scale(0.002286,-0.002286)"
fill="#000000" stroke="none">
<path d="M142 6974 c-57 -28 -96 -69 -123 -129 -18 -38 -19 -168 -19 -3345 0
-3177 1 -3307 19 -3345 27 -60 66 -101 123 -129 l52 -26 3306 0 3306 0 52 26
c57 28 96 69 123 129 18 38 19 168 19 3346 l0 3305 -26 52 c-28 57 -69 96
-129 123 -38 18 -168 19 -3346 19 l-3305 0 -52 -26z m6682 -6 c54 -16 128 -90
144 -144 18 -60 18 -6588 0 -6648 -16 -54 -90 -128 -144 -144 -31 -9 -243 -12
-855 -12 l-813 0 39 40 c21 22 45 40 52 40 8 0 16 8 20 18 3 9 15 27 26 39
l20 23 371 0 371 0 17 -40 c13 -33 22 -40 45 -41 43 -2 67 2 77 12 6 5 15 4
22 -2 7 -6 32 -9 56 -7 35 2 43 7 43 23 0 16 -8 21 -41 23 -36 3 -41 6 -37 23
9 33 -18 80 -54 95 -28 12 -38 12 -67 0 -19 -8 -39 -24 -46 -35 -11 -21 -16
-21 -353 -20 l-342 0 105 28 c413 107 729 336 970 702 130 198 218 409 271
654 l17 80 1 -257 1 -256 -35 -20 c-53 -32 -60 -98 -13 -142 21 -20 62 -25
103 -14 28 7 49 57 40 97 -3 18 -9 56 -12 86 -4 41 -9 54 -24 58 -25 7 -24 23
1 23 17 0 20 7 20 51 0 42 -3 52 -20 56 -26 7 -26 23 0 23 18 0 20 7 20 55 0
48 -2 55 -20 55 -11 0 -20 5 -20 10 0 6 9 10 20 10 18 0 20 7 20 55 0 48 -2
55 -20 55 -11 0 -20 4 -20 9 0 5 9 11 20 14 17 4 20 14 20 56 0 44 -3 51 -20
51 -11 0 -20 7 -20 15 0 8 9 15 20 15 17 0 20 7 20 50 0 43 -3 50 -20 50 -11
0 -20 7 -20 15 0 8 9 15 20 15 15 0 20 7 20 28 0 20 13 41 45 72 25 24 45 49
45 55 0 6 -20 31 -45 55 -43 42 -45 47 -45 102 0 51 -2 58 -20 58 -11 0 -20 5
-20 10 0 6 9 10 20 10 18 0 20 7 20 55 0 48 -2 55 -20 55 -26 0 -26 16 0 23
17 4 20 14 20 56 0 44 -3 51 -20 51 -26 0 -26 16 0 23 17 4 20 14 20 56 0 44
-3 51 -20 51 -11 0 -20 7 -20 15 0 8 9 15 20 15 17 0 20 7 20 50 0 43 -3 50
-20 50 -11 0 -20 7 -20 15 0 8 9 15 20 15 17 0 20 7 20 50 0 43 -3 50 -20 50
-11 0 -20 7 -20 15 0 8 9 15 20 15 17 0 20 7 20 49 0 27 4 60 9 73 5 14 4 42
-3 71 l-11 47 -53 0 c-43 0 -58 -5 -77 -25 -46 -45 -31 -122 26 -146 l29 -11
-1 -262 -1 -261 -17 80 c-80 365 -224 647 -472 925 -187 209 -463 377 -738
451 l-66 17 313 1 c296 1 312 0 312 -17 0 -10 11 -29 25 -42 59 -55 151 -11
148 70 -2 38 0 40 28 40 22 0 29 5 29 19 0 17 -9 20 -72 23 -40 2 -95 2 -122
0 -48 -3 -48 -4 -42 -33 l5 -29 -389 0 c-248 0 -391 4 -395 10 -4 6 13 10 44
10 44 0 51 3 51 20 0 18 -7 20 -55 20 -44 0 -55 -3 -55 -16 0 -11 -21 4 -57
39 l-58 56 -40 -39 c-30 -30 -49 -40 -73 -40 -25 0 -32 -4 -32 -19 0 -11 6
-22 13 -24 6 -3 -276 -5 -628 -5 -352 0 -630 3 -617 5 14 3 22 12 22 24 0 16
-7 19 -43 19 -36 0 -49 6 -77 35 l-34 35 -36 -35 c-27 -26 -39 -32 -47 -24
-20 20 -43 2 -43 -33 0 -19 -9 -41 -22 -55 l-21 -23 21 -23 c15 -16 22 -36 22
-65 0 -38 2 -42 25 -42 16 0 25 6 25 16 0 8 5 12 10 9 6 -3 10 -33 10 -65 0
-37 5 -60 13 -64 10 -5 10 -7 0 -12 -16 -7 -18 -114 -3 -114 6 0 10 -7 10 -15
0 -8 -4 -15 -10 -15 -5 0 -10 -22 -10 -50 0 -27 5 -50 10 -50 6 0 10 -7 10
-15 0 -8 -4 -15 -10 -15 -5 0 -10 -22 -10 -50 0 -27 5 -50 10 -50 6 0 10 -7
10 -15 0 -8 -4 -15 -10 -15 -15 0 -13 -107 3 -114 10 -5 10 -7 0 -12 -7 -3
-13 -20 -13 -37 0 -24 -3 -28 -12 -19 -7 7 -11 36 -9 73 2 58 2 60 -21 57 -17
-2 -24 -10 -26 -33 -2 -22 -24 -51 -80 -107 l-77 -78 -931 0 c-797 0 -933 2
-943 14 -15 18 -33 5 244 166 373 218 822 505 1008 647 32 24 55 38 50 30 -4
-8 -84 -95 -178 -195 -104 -111 -174 -177 -179 -171 -18 17 -74 9 -101 -14
-36 -30 -38 -86 -6 -121 28 -30 60 -37 99 -20 38 16 55 47 50 90 -4 32 9 47
254 309 l258 274 93 3 92 3 3 96 3 97 71 78 c39 44 116 126 169 182 l98 104 3
-49 c3 -41 6 -48 26 -51 21 -3 22 0 22 52 0 51 -2 56 -22 56 -23 1 -23 1 -3
18 11 9 42 43 70 76 l50 59 7 -39 c4 -22 10 -49 13 -61 4 -16 1 -23 -9 -23
-23 0 -46 -41 -46 -81 0 -29 7 -43 31 -63 39 -33 69 -33 108 0 24 20 31 34 31
63 0 44 -21 76 -53 85 -20 5 -25 15 -36 76 -15 84 -8 100 49 100 30 0 44 6 64
31 30 35 32 58 11 98 -29 58 -120 59 -149 2 -18 -33 -15 -43 -70 222 l-45 218
50 79 c28 44 48 84 45 89 -3 5 -26 22 -51 38 -40 25 -45 32 -45 66 0 33 -3 37
-24 37 -17 0 -26 -6 -28 -21 -2 -12 -39 156 -84 372 -80 388 -81 394 -62 418
33 43 21 103 -27 129 -11 6 -14 12 -7 12 6 0 12 9 12 20 0 17 -7 20 -48 20
-39 0 -53 5 -72 25 -33 35 -91 35 -127 -1 l-26 -26 -380 0 -380 0 -66 66 -66
66 -66 -66 -67 -66 -303 0 c-167 0 -328 1 -357 1 l-53 1 31 38 c30 37 33 39
80 34 43 -4 51 -1 74 23 55 59 16 144 -66 145 -51 0 -93 -48 -84 -99 5 -30 0
-41 -40 -88 -50 -58 -78 -67 -106 -33 -25 29 -65 35 -104 17 -19 -9 -34 -21
-34 -27 0 -5 -7 -10 -15 -10 -8 0 -15 -9 -15 -20 0 -11 5 -20 10 -20 6 0 10
-8 10 -17 1 -26 23 -51 57 -65 l31 -13 -143 -161 -143 -162 -98 -7 -97 -7 6
-97 7 -96 -123 -138 c-109 -124 -122 -136 -125 -113 -3 20 -9 26 -28 26 -23 0
-24 -3 -24 -56 l0 -56 -113 -129 c-99 -113 -116 -128 -144 -129 -47 0 -93 -43
-93 -87 0 -40 45 -93 80 -93 66 0 111 65 86 124 l-14 33 99 112 98 111 3 -37
c2 -30 7 -38 23 -38 17 0 20 8 23 53 2 34 -1 52 -8 52 -13 0 36 61 124 155
l57 60 -45 -90 c-43 -89 -115 -284 -117 -321 -1 -10 -5 -1 -8 21 -5 32 -11 41
-28 43 -22 3 -23 0 -23 -52 0 -51 2 -56 22 -56 17 0 8 -14 -50 -72 l-72 -73
50 -50 c28 -28 50 -56 50 -63 0 -7 8 -15 17 -19 10 -3 26 -13 36 -21 16 -15
22 -11 80 46 l62 61 125 -31 c69 -17 128 -34 133 -38 4 -3 -22 -40 -58 -80
-57 -66 -69 -74 -102 -76 -75 -2 -111 -94 -57 -148 68 -67 182 15 138 99 -14
27 -12 30 33 82 27 30 59 68 73 85 25 29 27 29 73 18 26 -7 44 -17 41 -22 -7
-11 144 -168 161 -168 6 0 46 36 90 80 l79 80 -58 59 c-56 57 -58 61 -52 98
12 65 57 205 82 255 l24 48 85 0 c46 0 86 3 88 8 2 4 0 52 -4 107 l-6 100 31
28 c49 43 178 104 263 124 104 24 321 24 413 0 112 -29 226 -93 305 -172 65
-64 145 -177 145 -204 0 -6 -20 -52 -45 -101 -25 -49 -45 -91 -45 -93 0 -2 37
-21 81 -42 l81 -40 -5 -75 c-8 -90 -27 -169 -67 -270 -54 -135 -108 -211 -283
-398 l-167 -179 -61 -7 c-34 -3 -86 -6 -115 -6 l-54 0 0 -89 0 -90 -135 -96
c-74 -52 -395 -268 -714 -479 l-579 -384 -40 42 c-22 22 -42 52 -44 66 -2 17
-9 25 -23 25 -17 0 -21 -8 -23 -45 -3 -40 -10 -52 -65 -107 l-61 -63 62 -63
c37 -37 62 -71 62 -84 0 -12 6 -23 13 -26 10 -4 10 -7 0 -18 -15 -15 -17 -109
-3 -109 6 0 10 -7 10 -15 0 -8 -4 -15 -10 -15 -5 0 -10 -25 -10 -55 0 -30 5
-55 10 -55 6 0 10 -7 10 -15 0 -8 -5 -15 -11 -15 -6 0 -9 -23 -8 -60 l3 -61
-64 -64 -64 -65 79 -80 c44 -44 84 -80 90 -80 6 0 33 23 60 50 45 46 53 50 97
50 36 0 48 4 48 15 0 8 5 15 10 15 6 0 10 -7 10 -15 0 -12 13 -15 55 -15 42 0
55 3 55 15 0 8 7 15 15 15 8 0 15 -7 15 -15 0 -12 13 -15 55 -15 42 0 55 3 55
15 0 8 7 15 15 15 8 0 15 -7 15 -15 0 -12 13 -15 55 -15 42 0 55 3 55 15 0 8
5 15 10 15 6 0 10 -7 10 -15 0 -12 13 -15 55 -15 42 0 55 3 55 15 0 8 7 15 15
15 8 0 15 -7 15 -15 0 -12 13 -15 55 -15 42 0 55 3 55 15 0 8 7 15 15 15 8 0
15 -7 15 -15 0 -12 13 -15 55 -15 42 0 55 3 55 15 0 8 5 15 10 15 6 0 10 -7
10 -15 0 -12 13 -15 55 -15 42 0 55 3 55 15 0 8 7 15 15 15 8 0 15 -7 15 -15
0 -12 13 -15 55 -15 42 0 55 3 55 15 0 8 5 15 10 15 6 0 10 -7 10 -15 0 -12
13 -15 60 -15 47 0 60 3 60 15 0 8 5 15 10 15 6 0 10 -7 10 -15 0 -12 13 -15
55 -15 42 0 55 3 55 15 0 8 7 15 15 15 8 0 15 -7 15 -15 0 -12 13 -15 55 -15
42 0 55 3 55 15 0 8 5 15 10 15 6 0 10 -7 10 -15 0 -12 13 -15 55 -15 42 0 55
3 55 15 0 8 7 15 15 15 8 0 15 -7 15 -15 0 -12 13 -15 55 -15 42 0 55 3 55 15
0 8 7 15 15 15 8 0 15 -7 15 -15 0 -12 13 -15 55 -15 42 0 55 3 55 15 0 8 5
15 10 15 6 0 10 -7 10 -15 0 -12 13 -15 55 -15 42 0 55 3 55 15 0 8 7 15 15
15 8 0 15 -7 15 -15 0 -12 13 -15 55 -15 42 0 55 3 55 15 0 8 7 15 15 15 8 0
15 -7 15 -15 0 -12 13 -15 55 -15 42 0 55 3 55 15 0 8 5 15 10 15 6 0 10 -7
10 -15 0 -12 13 -15 55 -15 42 0 55 3 55 15 0 8 7 15 15 15 8 0 15 -7 15 -15
0 -12 13 -15 55 -15 42 0 55 3 55 15 0 8 7 15 15 15 8 0 15 -7 15 -15 0 -11
13 -15 54 -15 30 0 56 5 58 10 2 6 34 -21 73 -60 l69 -70 43 42 c24 23 43 37
43 30 0 -7 -4 -12 -10 -12 -15 0 -13 -107 3 -114 10 -5 10 -7 0 -12 -8 -3 -13
-26 -13 -59 0 -33 5 -56 13 -59 10 -5 9 -7 -1 -12 -15 -7 -17 -114 -2 -114 6
0 10 -7 10 -15 0 -8 -4 -15 -10 -15 -5 0 -10 -22 -10 -50 0 -27 5 -50 10 -50
6 0 10 -7 10 -15 0 -8 -4 -15 -10 -15 -5 0 -10 -22 -10 -50 0 -27 5 -50 10
-50 6 0 10 -7 10 -15 0 -8 -4 -15 -10 -15 -15 0 -13 -107 3 -114 10 -5 9 -7
-1 -12 -16 -8 -16 -110 1 -118 10 -5 10 -7 0 -12 -17 -8 -17 -110 0 -118 10
-5 9 -7 -1 -12 -16 -8 -16 -111 1 -117 10 -4 10 -7 0 -18 -15 -15 -17 -109 -3
-109 6 0 10 -7 10 -15 0 -8 -4 -15 -10 -15 -5 0 -10 -22 -10 -50 0 -27 5 -50
10 -50 6 0 10 -7 10 -15 0 -8 -4 -15 -10 -15 -14 0 -12 -94 3 -109 10 -11 10
-14 0 -18 -8 -3 -13 -24 -13 -58 0 -33 5 -56 13 -59 10 -5 10 -7 0 -12 -8 -3
-13 -26 -13 -59 0 -33 5 -56 13 -59 10 -5 9 -7 -1 -12 -7 -3 -12 -24 -12 -47
0 -38 -6 -48 -70 -112 l-70 -70 85 -85 85 -84 40 39 c37 36 45 39 98 40 51 0
57 2 60 23 3 19 -1 22 -35 24 -21 1 243 5 587 8 400 3 630 2 639 -4 7 -6 17
-20 22 -33 5 -13 14 -23 22 -23 7 0 31 -18 52 -40 l39 -40 -2463 0 c-1912 0
-2473 3 -2505 12 -54 16 -128 90 -144 144 -18 60 -18 6588 0 6648 15 50 89
127 138 143 53 17 6597 18 6654 1z m-5109 -364 c-230 -36 -452 -120 -610 -233
-60 -42 -54 -34 88 127 l109 122 251 -1 252 -1 -90 -14z m1365 2 c0 -7 11 -25
25 -41 22 -23 32 -26 70 -23 43 3 45 2 45 -24 0 -30 50 -78 81 -78 10 0 19 -2
19 -4 0 -2 29 -145 65 -318 36 -172 67 -324 69 -338 3 -14 -10 8 -29 48 -185
390 -571 679 -1017 762 -37 7 -65 16 -62 21 3 5 168 9 370 9 299 0 364 -2 364
-14z m535 -1601 l40 -195 -43 -42 c-31 -32 -42 -38 -42 -25 0 13 -6 17 -22 15
-19 -2 -24 -11 -28 -49 -4 -40 -14 -55 -79 -125 l-73 -79 35 71 c39 77 100
247 111 307 6 31 11 37 31 37 24 0 25 3 25 55 0 42 -3 55 -15 55 -8 0 -15 7
-15 15 0 8 7 15 15 15 11 0 15 13 15 54 0 33 -5 56 -12 58 -12 4 -3 28 11 28
4 0 25 -88 46 -195z m80 -145 c3 -5 1 -10 -4 -10 -6 0 -11 5 -11 10 0 6 2 10
4 10 3 0 8 -4 11 -10z m1335 -1505 l74 -75 62 61 62 61 38 -12 c282 -92 517
-357 639 -722 37 -112 72 -293 76 -396 l3 -63 -74 -74 -74 -75 72 -73 73 -73
-11 -90 c-15 -127 -57 -294 -99 -400 -51 -125 -121 -234 -215 -332 -137 -143
-261 -223 -424 -277 l-84 -28 -69 69 -69 69 -83 -83 -82 -82 -185 0 -184 0
-63 62 -63 62 0 1205 0 1205 67 68 67 68 236 0 236 0 74 -75z m-1420 -425 c0
-5 -4 -10 -10 -10 -5 0 -10 -25 -10 -55 0 -30 5 -55 10 -55 6 0 10 -7 10 -15
0 -8 -4 -15 -10 -15 -5 0 -10 -22 -10 -50 0 -27 5 -50 10 -50 6 0 10 -7 10
-15 0 -8 -4 -15 -10 -15 -5 0 -10 -22 -10 -50 0 -27 5 -50 10 -50 6 0 10 -7
10 -15 0 -8 -4 -15 -10 -15 -5 0 -10 -9 -10 -21 0 -11 -4 -17 -10 -14 -5 3
-10 24 -10 46 0 26 -5 42 -15 45 -8 4 -15 10 -15 15 0 5 7 9 15 9 12 0 15 13
15 55 0 42 -3 55 -15 55 -8 0 -15 7 -15 15 0 8 7 15 15 15 12 0 15 13 15 55 0
42 -3 55 -15 55 -8 0 -15 4 -15 9 0 5 7 11 15 15 8 3 15 14 15 24 0 18 18 42
32 42 4 0 8 -4 8 -10z"/>
<path d="M413 6645 c-20 -22 -16 -25 32 -25 38 0 45 3 45 20 0 16 -7 20 -32
20 -18 -1 -39 -7 -45 -15z"/>
<path d="M510 6640 c0 -18 7 -20 55 -20 48 0 55 2 55 20 0 18 -7 20 -55 20
-48 0 -55 -2 -55 -20z"/>
<path d="M650 6640 c0 -18 7 -20 55 -20 48 0 55 2 55 20 0 18 -7 20 -55 20
-48 0 -55 -2 -55 -20z"/>
<path d="M790 6640 c0 -18 7 -20 55 -20 48 0 55 2 55 20 0 18 -7 20 -55 20
-48 0 -55 -2 -55 -20z"/>
<path d="M920 6640 c0 -18 7 -20 55 -20 48 0 55 2 55 20 0 18 -7 20 -55 20
-48 0 -55 -2 -55 -20z"/>
<path d="M3380 6640 c0 -18 7 -20 55 -20 48 0 55 2 55 20 0 18 -7 20 -55 20
-48 0 -55 -2 -55 -20z"/>
<path d="M3520 6610 c0 -47 2 -50 25 -50 23 0 25 3 25 50 0 47 -2 50 -25 50
-23 0 -25 -3 -25 -50z"/>
<path d="M400 6536 c0 -53 1 -56 26 -56 24 0 25 2 22 53 -3 45 -6 52 -25 55
-22 3 -23 0 -23 -52z"/>
<path d="M3522 6478 c3 -46 6 -53 26 -56 21 -3 22 0 22 52 0 53 -1 56 -26 56
-24 0 -25 -2 -22 -52z"/>
<path d="M400 6394 c0 -52 1 -55 23 -52 19 3 22 10 25 56 3 50 2 52 -22 52
-25 0 -26 -3 -26 -56z"/>
<path d="M3527 6394 c-4 -4 -7 -29 -7 -56 0 -45 2 -48 26 -48 24 0 25 2 22 52
-2 38 -7 54 -18 56 -9 1 -19 0 -23 -4z"/>
<path d="M407 6314 c-4 -4 -7 -29 -7 -56 0 -45 2 -48 26 -48 24 0 25 2 22 52
-2 38 -7 54 -18 56 -9 1 -19 0 -23 -4z"/>
<path d="M3527 6253 c-4 -3 -7 -28 -7 -55 0 -45 2 -48 25 -48 24 0 25 3 25 55
0 47 -3 55 -18 55 -10 0 -22 -3 -25 -7z"/>
<path d="M400 6125 c0 -53 1 -56 23 -53 19 3 22 9 22 53 0 44 -3 50 -22 53
-22 3 -23 0 -23 -53z"/>
<path d="M3522 6068 c3 -46 6 -53 26 -56 21 -3 22 0 22 52 0 53 -1 56 -26 56
-24 0 -25 -2 -22 -52z"/>
<path d="M402 5988 c3 -45 6 -53 23 -53 17 0 20 8 23 53 3 50 2 52 -23 52 -25
0 -26 -2 -23 -52z"/>
<path d="M3527 5984 c-4 -4 -7 -29 -7 -56 0 -45 2 -48 26 -48 24 0 25 2 22 52
-2 38 -7 54 -18 56 -9 1 -19 0 -23 -4z"/>
<path d="M400 5856 c0 -53 1 -56 26 -56 24 0 25 2 22 53 -3 45 -6 52 -25 55
-22 3 -23 0 -23 -52z"/>
<path d="M3520 5795 c0 -52 1 -55 25 -55 24 0 25 3 25 55 0 52 -1 55 -25 55
-24 0 -25 -3 -25 -55z"/>
<path d="M400 5036 c0 -53 1 -56 26 -56 24 0 25 2 22 53 -3 45 -6 52 -25 55
-22 3 -23 0 -23 -52z"/>
<path d="M400 4894 c0 -52 1 -55 23 -52 19 3 22 10 25 56 3 50 2 52 -22 52
-25 0 -26 -3 -26 -56z"/>
<path d="M407 4814 c-4 -4 -7 -29 -7 -56 0 -45 2 -48 26 -48 24 0 25 2 22 52
-2 38 -7 54 -18 56 -9 1 -19 0 -23 -4z"/>
<path d="M400 4626 c0 -53 1 -56 26 -56 24 0 25 2 22 53 -3 45 -6 52 -25 55
-22 3 -23 0 -23 -52z"/>
<path d="M400 4484 c0 -52 1 -55 23 -52 19 3 22 10 25 56 3 50 2 52 -22 52
-25 0 -26 -3 -26 -56z"/>
<path d="M3527 4484 c-4 -4 -7 -29 -7 -56 0 -45 2 -48 26 -48 24 0 25 2 22 52
-2 38 -7 54 -18 56 -9 1 -19 0 -23 -4z"/>
<path d="M407 4404 c-4 -4 -7 -29 -7 -56 0 -45 2 -48 26 -48 24 0 25 2 22 52
-2 38 -7 54 -18 56 -9 1 -19 0 -23 -4z"/>
<path d="M3527 4343 c-4 -3 -7 -28 -7 -55 0 -45 2 -48 25 -48 24 0 25 3 25 55
0 47 -3 55 -18 55 -10 0 -22 -3 -25 -7z"/>
<path d="M400 4215 c0 -53 1 -56 23 -53 19 3 22 9 22 53 0 44 -3 50 -22 53
-22 3 -23 0 -23 -53z"/>
<path d="M3522 4158 c3 -46 6 -53 26 -56 21 -3 22 0 22 52 0 53 -1 56 -26 56
-24 0 -25 -2 -22 -52z"/>
<path d="M402 4078 c3 -45 6 -53 23 -53 17 0 20 8 23 53 3 50 2 52 -23 52 -25
0 -26 -2 -23 -52z"/>
<path d="M3830 4040 c0 -17 7 -20 50 -20 43 0 50 3 50 20 0 17 -7 20 -50 20
-43 0 -50 -3 -50 -20z"/>
<path d="M3960 4040 c0 -17 7 -20 50 -20 43 0 50 3 50 20 0 17 -7 20 -50 20
-43 0 -50 -3 -50 -20z"/>
<path d="M4090 4039 c0 -18 5 -20 52 -17 41 2 54 7 56 21 3 14 -5 17 -52 17
-50 0 -56 -2 -56 -21z"/>
<path d="M4220 4040 c0 -18 7 -20 55 -20 48 0 55 2 55 20 0 18 -7 20 -55 20
-48 0 -55 -2 -55 -20z"/>
<path d="M4350 4040 c0 -18 7 -20 55 -20 48 0 55 2 55 20 0 18 -7 20 -55 20
-48 0 -55 -2 -55 -20z"/>
<path d="M4480 4040 c0 -18 7 -20 55 -20 48 0 55 2 55 20 0 18 -7 20 -55 20
-48 0 -55 -2 -55 -20z"/>
<path d="M4615 4050 c-12 -20 7 -30 56 -30 42 0 49 3 49 20 0 17 -7 20 -49 20
-28 0 -53 -4 -56 -10z"/>
<path d="M4750 4040 c0 -17 7 -20 50 -20 43 0 50 3 50 20 0 17 -7 20 -50 20
-43 0 -50 -3 -50 -20z"/>
<path d="M4880 4040 c0 -17 7 -20 50 -20 43 0 50 3 50 20 0 17 -7 20 -50 20
-43 0 -50 -3 -50 -20z"/>
<path d="M5400 4040 c0 -18 7 -20 55 -20 48 0 55 2 55 20 0 18 -7 20 -55 20
-48 0 -55 -2 -55 -20z"/>
<path d="M5540 4040 c0 -17 7 -20 50 -20 43 0 50 3 50 20 0 17 -7 20 -50 20
-43 0 -50 -3 -50 -20z"/>
<path d="M5670 4040 c0 -17 7 -20 50 -20 43 0 50 3 50 20 0 17 -7 20 -50 20
-43 0 -50 -3 -50 -20z"/>
<path d="M5800 4039 c0 -18 5 -20 52 -17 41 2 54 7 56 21 3 14 -5 17 -52 17
-50 0 -56 -2 -56 -21z"/>
<path d="M5930 4040 c0 -18 7 -20 55 -20 48 0 55 2 55 20 0 18 -7 20 -55 20
-48 0 -55 -2 -55 -20z"/>
<path d="M6322 4043 c2 -14 15 -19 56 -21 47 -3 52 -1 52 17 0 19 -6 21 -56
21 -47 0 -55 -3 -52 -17z"/>
<path d="M6460 4040 c0 -17 7 -20 50 -20 43 0 50 3 50 20 0 17 -7 20 -50 20
-43 0 -50 -3 -50 -20z"/>
<path d="M6590 4040 c0 -17 7 -20 50 -20 43 0 50 3 50 20 0 17 -7 20 -50 20
-43 0 -50 -3 -50 -20z"/>
<path d="M6720 4040 c0 -13 7 -20 19 -20 10 0 33 -3 50 -6 28 -6 31 -4 31 20
0 25 -3 26 -50 26 -43 0 -50 -3 -50 -20z"/>
<path d="M400 3946 c0 -53 1 -56 26 -56 24 0 25 2 22 53 -3 45 -6 52 -25 55
-22 3 -23 0 -23 -52z"/>
<path d="M6780 3935 c0 -48 2 -55 20 -55 18 0 20 7 20 55 0 48 -2 55 -20 55
-18 0 -20 -7 -20 -55z"/>
<path d="M400 3804 c0 -52 1 -55 23 -52 19 3 22 10 25 56 3 50 2 52 -22 52
-25 0 -26 -3 -26 -56z"/>
<path d="M6780 3806 c0 -50 2 -56 21 -56 18 0 20 5 17 52 -2 41 -7 54 -20 56
-15 3 -18 -5 -18 -52z"/>
<path d="M3522 3748 c3 -45 6 -53 23 -53 17 0 20 8 23 53 3 50 2 52 -23 52
-25 0 -26 -2 -23 -52z"/>
<path d="M402 3668 c3 -45 6 -53 23 -53 17 0 20 8 23 53 3 50 2 52 -23 52 -25
0 -26 -2 -23 -52z"/>
<path d="M6780 3670 c0 -43 3 -50 20 -50 17 0 20 7 20 50 0 43 -3 50 -20 50
-17 0 -20 -7 -20 -50z"/>
<path d="M3527 3664 c-4 -4 -7 -29 -7 -56 0 -45 2 -48 26 -48 24 0 25 2 22 52
-2 38 -7 54 -18 56 -9 1 -19 0 -23 -4z"/>
<path d="M400 3536 c0 -53 1 -56 26 -56 24 0 25 2 22 53 -3 45 -6 52 -25 55
-22 3 -23 0 -23 -52z"/>
<path d="M6780 3540 c0 -43 3 -50 20 -50 17 0 20 7 20 50 0 43 -3 50 -20 50
-17 0 -20 -7 -20 -50z"/>
<path d="M3520 3475 c0 -52 1 -55 25 -55 24 0 25 3 25 55 0 52 -1 55 -25 55
-24 0 -25 -3 -25 -55z"/>
<path d="M6780 3404 c0 -47 3 -55 18 -52 13 2 18 15 20 56 3 47 1 52 -17 52
-19 0 -21 -6 -21 -56z"/>
<path d="M400 3394 c0 -52 1 -55 23 -52 19 3 22 10 25 56 3 50 2 52 -22 52
-25 0 -26 -3 -26 -56z"/>
<path d="M3522 3338 c3 -45 6 -53 23 -53 17 0 20 8 23 53 3 50 2 52 -23 52
-25 0 -26 -2 -23 -52z"/>
<path d="M6780 3275 c0 -48 2 -55 20 -55 18 0 20 7 20 55 0 48 -2 55 -20 55
-18 0 -20 -7 -20 -55z"/>
<path d="M6780 904 c0 -47 3 -55 18 -52 13 2 18 15 20 56 3 47 1 52 -17 52
-19 0 -21 -6 -21 -56z"/>
<path d="M6780 774 c0 -47 3 -55 18 -52 13 2 18 15 20 56 3 47 1 52 -17 52
-19 0 -21 -6 -21 -56z"/>
<path d="M6780 645 c0 -48 2 -55 20 -55 18 0 20 7 20 55 0 48 -2 55 -20 55
-18 0 -20 -7 -20 -55z"/>
<path d="M6780 515 c0 -48 2 -55 20 -55 18 0 20 7 20 55 0 48 -2 55 -20 55
-18 0 -20 -7 -20 -55z"/>
<path d="M6780 386 c0 -50 2 -56 21 -56 18 0 20 5 17 52 -2 41 -7 54 -20 56
-15 3 -18 -5 -18 -52z"/>
<path d="M6780 250 c0 -43 3 -50 20 -50 17 0 20 7 20 50 0 43 -3 50 -20 50
-17 0 -20 -7 -20 -50z"/>
<path d="M6780 160 c0 -5 -9 -10 -21 -10 -15 0 -20 -5 -17 -22 2 -19 9 -23 38
-23 32 0 35 3 38 33 3 27 0 32 -17 32 -12 0 -21 -4 -21 -10z"/>
<path d="M3843 134 c-9 -24 11 -36 58 -32 37 2 45 7 47 26 3 20 0 22 -48 22
-37 0 -52 -4 -57 -16z"/>
<path d="M3973 134 c-9 -24 11 -36 58 -32 37 2 45 7 47 26 3 20 0 22 -48 22
-37 0 -52 -4 -57 -16z"/>
<path d="M4110 125 c0 -23 3 -25 50 -25 47 0 50 2 50 25 0 23 -3 25 -50 25
-47 0 -50 -2 -50 -25z"/>
<path d="M4242 128 c3 -21 8 -23 53 -23 43 0 50 3 50 20 0 17 -8 20 -53 23
-51 3 -53 2 -50 -20z"/>
<path d="M4372 128 c3 -21 8 -23 53 -23 43 0 50 3 50 20 0 17 -8 20 -53 23
-51 3 -53 2 -50 -20z"/>
<path d="M4502 128 c3 -21 8 -23 53 -23 43 0 50 3 50 20 0 17 -8 20 -53 23
-51 3 -53 2 -50 -20z"/>
<path d="M4633 134 c-9 -24 11 -36 58 -32 37 2 45 7 47 26 3 20 0 22 -48 22
-37 0 -52 -4 -57 -16z"/>
<path d="M4763 134 c-9 -24 11 -36 58 -32 37 2 45 7 47 26 3 20 0 22 -48 22
-37 0 -52 -4 -57 -16z"/>
<path d="M4900 124 c0 -24 2 -25 48 -22 40 3 47 6 50 26 3 20 0 22 -47 22 -48
0 -51 -2 -51 -26z"/>
<path d="M5292 128 c3 -21 8 -23 53 -23 43 0 50 3 50 20 0 17 -8 20 -53 23
-51 3 -53 2 -50 -20z"/>
<path d="M5424 135 c-10 -25 9 -37 57 -33 36 2 44 7 44 23 0 17 -8 20 -48 23
-36 2 -49 -1 -53 -13z"/>
<path d="M5553 134 c-9 -24 11 -36 58 -32 37 2 45 7 47 26 3 20 0 22 -48 22
-37 0 -52 -4 -57 -16z"/>
<path d="M5683 134 c-9 -24 11 -36 58 -32 37 2 45 7 47 26 3 20 0 22 -48 22
-37 0 -52 -4 -57 -16z"/>
<path d="M5820 124 c0 -24 2 -25 48 -22 40 3 47 6 50 26 3 20 0 22 -47 22 -48
0 -51 -2 -51 -26z"/>
<path d="M5952 128 c3 -20 10 -23 51 -26 45 -3 47 -2 47 22 0 24 -3 26 -51 26
-47 0 -50 -2 -47 -22z"/>
<path d="M6343 134 c-9 -24 11 -36 58 -32 37 2 45 7 47 26 3 20 0 22 -48 22
-37 0 -52 -4 -57 -16z"/>
<path d="M6473 134 c-9 -24 11 -36 58 -32 37 2 45 7 47 26 3 20 0 22 -48 22
-37 0 -52 -4 -57 -16z"/>
<path d="M6610 124 c0 -24 2 -25 48 -22 40 3 47 6 50 26 3 20 0 22 -47 22 -48
0 -51 -2 -51 -26z"/>
<path d="M3524 4887 c-3 -8 -4 -34 -2 -58 2 -36 7 -44 23 -44 18 0 20 7 20 55
0 44 -3 55 -18 58 -9 2 -20 -3 -23 -11z"/>
</g>
</svg>
